<?xml version="1.0" encoding="iso-8859-1"?>
<!-- Uploaded to: SVG Repo, www.svgrepo.com, Generator: SVG Repo Mixer Tools -->
<!DOCTYPE svg PUBLIC "-//W3C//DTD SVG 1.1//EN" "http://www.w3.org/Graphics/SVG/1.1/DTD/svg11.dtd">
<svg fill="#000000" version="1.1" id="Capa_1" xmlns="http://www.w3.org/2000/svg" xmlns:xlink="http://www.w3.org/1999/xlink" 
	 width="800px" height="800px" viewBox="0 0 441.652 441.652"
	 xml:space="preserve">
<g>
	<path d="M440.553,139.166c1.467-1.464,1.467-3.839,0-5.303l-79.559-79.56c-0.703-0.702-1.656-1.098-2.651-1.098h-33.338h-25.003
		h-65.008h-28.336h-65.006h-25.005H83.309c-0.992,0-1.946,0.396-2.65,1.098l-79.56,79.56c-1.466,1.464-1.466,3.839,0,5.303
		l78.46,78.461V384.74c0,2.047,1.659,3.707,3.706,3.707c2.046,0,3.706-1.66,3.706-3.707v-37.355h9.943v37.355
		c0,2.047,1.659,3.707,3.706,3.707c2.046,0,3.706-1.66,3.706-3.707v-37.355h9.943v37.355c0,2.047,1.659,3.707,3.706,3.707
		c2.046,0,3.706-1.66,3.706-3.707v-37.355h9.943v37.355c0,2.047,1.659,3.707,3.706,3.707c2.046,0,3.706-1.66,3.706-3.707v-37.355
		h9.943v37.355c0,2.047,1.659,3.707,3.706,3.707c2.046,0,3.706-1.66,3.706-3.707v-37.355h9.943v37.355
		c0,2.047,1.659,3.707,3.706,3.707c2.046,0,3.706-1.66,3.706-3.707v-37.355h9.943v37.355c0,2.047,1.659,3.707,3.706,3.707
		c2.046,0,3.706-1.66,3.706-3.707v-37.355h9.943v37.355c0,2.047,1.659,3.707,3.706,3.707c2.046,0,3.706-1.66,3.706-3.707v-37.355
		h9.943v37.355c0,2.047,1.659,3.707,3.707,3.707c2.047,0,3.705-1.66,3.705-3.707v-37.355h9.942v37.355
		c0,2.047,1.659,3.707,3.706,3.707s3.705-1.66,3.705-3.707v-37.355h9.943v37.355c0,2.047,1.658,3.707,3.705,3.707
		c2.048,0,3.705-1.66,3.705-3.707v-37.355h9.943v37.355c0,2.047,1.659,3.707,3.706,3.707s3.705-1.66,3.705-3.707v-37.355h9.942
		v37.355c0,2.047,1.659,3.707,3.706,3.707c2.048,0,3.705-1.66,3.705-3.707v-37.355h9.943v37.355c0,2.047,1.659,3.707,3.706,3.707
		s3.705-1.66,3.705-3.707v-37.355h9.942v37.355c0,2.047,1.659,3.707,3.706,3.707s3.705-1.66,3.705-3.707v-37.355h9.943v37.355
		c0,2.047,1.659,3.707,3.706,3.707s3.705-1.66,3.705-3.707v-37.355h7.399v37.355c0,2.047,1.659,3.707,3.706,3.707
		s3.705-1.66,3.705-3.707l-0.009-167.113L440.553,139.166z M210.41,60.707h20.834V75.71H210.41V60.707L210.41,60.707z
		 M202.907,60.707V79.46c0.001,2.072,1.68,3.751,3.751,3.751h28.336c2.07,0,3.752-1.679,3.752-3.751V60.707h57.409
		c-1.961,39.853-34.997,71.674-75.329,71.674s-73.368-31.821-75.33-71.674H202.907z M137.985,60.707
		c1.966,43.993,38.369,79.175,82.842,79.175c44.47,0,80.876-35.182,82.841-79.175h17.518
		c-1.978,53.646-46.235,96.677-100.357,96.677c-54.123,0-98.383-43.03-100.358-96.677H137.985z M358.374,149.739
		c-2.072,0-3.75,1.679-3.75,3.75v62.265c-0.012,0.107-0.031,0.212-0.031,0.32v123.832H87.062V216.074c0-0.108-0.021-0.213-0.03-0.32
		v-62.118c0-2.071-1.681-3.75-3.751-3.75c-2.07,0-3.75,1.679-3.75,3.75v53.354L9.058,136.516l75.807-75.808h28.13
		c1.985,57.778,49.579,104.178,107.833,104.178c58.255,0,105.847-46.399,107.833-104.178h28.129l75.81,75.808l-70.475,70.474v-53.5
		C362.124,151.418,360.445,149.739,358.374,149.739z"/>
</g>
</svg>